# xmcd
#
# Track frame offsets:
#	150
#	6122
#	21002
#	31822
#	44227
#	51132
#	63900
#	89480
#	94855
#	102572
#	109957
#	117552
#	128247
#	145720
#
# Disc length: 2245 seconds
#
# Revision: 2
# Processed by: cddbd v1.5.1PL0 Copyright (c) Steve Scherf et al.
# Submitted via: dBpowerAMP V4.0
#
DISCID=c408c30e
DTITLE=Jon Spencer Blues Explosion - Controversial Negro
DYEAR=1996
DGENRE=Blues
TTITLE0=Get With It
TTITLE1=Can't Stop
TTITLE2=Son of Sam
TTITLE3=Cool Vee
TTITLE4=Afro
TTITLE5=R. L. Got Soul
TTITLE6=Blues Explosion Man
TTITLE7=Water Main
TTITLE8=Love All Of Me
TTITLE9=Fuck Shit Up
TTITLE10=Hot Shot
TTITLE11=Skunk
TTITLE12=Vacuum Of Loneliness
TTITLE13=Sticky
EXTD=
EXTT0=
EXTT1=
EXTT2=
EXTT3=
EXTT4=
EXTT5=
EXTT6=
EXTT7=
EXTT8=
EXTT9=
EXTT10=
EXTT11=
EXTT12=
EXTT13=
PLAYORDER=
